<?xml version="1.0" standalone="no"?><!DOCTYPE svg PUBLIC "-//W3C//DTD SVG 1.1//EN" "http://www.w3.org/Graphics/SVG/1.1/DTD/svg11.dtd"><svg class="icon" width="128px" height="128.00px" viewBox="0 0 1024 1024" version="1.1" xmlns="http://www.w3.org/2000/svg"><path fill="#e6e6e6" d="M703.3 555.1h-172v-88.4h172.9c11 0 20-9 20-20s-9-20-20-20H548.8l108-160.9c6.2-9.2 3.7-21.6-5.5-27.8-9.2-6.2-21.6-3.7-27.8 5.5L511.4 410.7l-110.6-167c-6.1-9.2-18.5-11.7-27.7-5.6s-11.7 18.5-5.6 27.7l106.6 161h-154c-11 0-20 9-20 20s9 20 20 20h171.2v88.4h-172c-11 0-20 9-20 20s9 20 20 20h171.9v235.6c0 11 9 20 20 20s20-9 20-20V595.1h172.1c11 0 20-9 20-20s-8.9-20-20-20zM681.4 884.7c-53.3 24.3-110.2 36.6-169.3 36.6-225.6 0-409.1-183.5-409.1-409.1 0-225.6 183.5-409.1 409.1-409.1 225.6 0 409.1 183.5 409.1 409.1 0 66.6-16.3 132.6-47.3 191.1 5.4 4.3 10.5 9 15.1 14.1 4.5 4.9 8.6 10.2 12.4 15.7 2.1-1.6 3.8-3.7 5.2-6.1 35.7-65.5 54.6-139.7 54.6-214.8 0-60.6-11.9-119.4-35.3-174.8-22.6-53.5-55-101.5-96.2-142.7-41.2-41.2-89.3-73.6-142.7-96.2C631.5 75 572.7 63.1 512.1 63.1S392.7 75 337.3 98.4c-53.5 22.6-101.5 55-142.7 96.2-41.2 41.2-73.6 89.3-96.2 142.7C74.9 392.8 63 451.6 63 512.2c0 60.6 11.9 119.4 35.3 174.8 22.6 53.5 55 101.5 96.2 142.7 41.2 41.2 89.3 73.6 142.7 96.2 55.4 23.4 114.2 35.3 174.8 35.3 66.8 0 131.1-14.3 191-42.6 2.5-1.2 4.7-2.8 6.4-4.8-5.3-4.1-10.3-8.5-14.9-13.3-4.7-4.8-9.1-10.1-13.1-15.8zM887.9 842.5H733.4c-11 0-20-9-20-20s9-20 20-20h154.5c11 0 20 9 20 20s-9 20-20 20zM810.6 919.7c-11 0-20-9-20-20V745.2c0-11 9-20 20-20s20 9 20 20v154.5c0 11.1-8.9 20-20 20z" /></svg>