<?xml version="1.0" standalone="no"?><!DOCTYPE svg PUBLIC "-//W3C//DTD SVG 1.1//EN" "http://www.w3.org/Graphics/SVG/1.1/DTD/svg11.dtd"><svg class="icon" width="128px" height="128.00px" viewBox="0 0 1024 1024" version="1.1" xmlns="http://www.w3.org/2000/svg"><path fill="#e6e6e6" d="M894.293333 377.514667c0-0.341333 0-0.341333-0.341333-0.682667l-57.002667-104.448c-6.485333-10.581333-11.605333-20.48-16.725333-29.013333-26.282667-46.421333-40.618667-72.021333-94.890667-72.021334l-171.690666 0.341334-258.730667-0.341334c-54.272 0-68.608 25.6-94.890667 72.021334l-17.066666 29.696-56.661334 103.765333c-0.341333 0.341333-0.341333 0.682667-0.341333 1.024-3.754667 8.192-6.144 17.408-6.144 26.965333v20.48c0 9.557333 7.509333 17.066667 17.066667 17.066667s17.066667-7.509333 17.066666-17.066667v-20.48c0-16.384 13.312-30.037333 30.037334-30.037333h647.168c21.504 0 39.253333 17.749333 39.253333 39.253333V771.413333c0 26.624-21.845333 48.469333-48.469333 48.469334H202.069333c-26.624 0-48.469333-21.845333-48.469333-48.469334v-3.754666c0-9.557333-7.509333-17.066667-17.066667-17.066667s-17.066667 7.509333-17.066666 17.066667v3.754666c0 45.397333 36.864 82.602667 82.602666 82.602667h619.861334c45.397333 0 82.602667-36.864 82.602666-82.602667V414.378667c0-13.653333-4.096-25.941333-10.24-36.864zM184.661333 340.992l27.989334-51.2c6.485333-10.922667 11.946667-20.821333 17.066666-29.696 25.941333-46.08 32.085333-54.613333 65.194667-54.613333l205.824 0.341333 224.597333-0.341333c33.109333 0 39.253333 8.874667 65.194667 54.613333 5.12 8.874667 10.581333 18.773333 16.725333 29.013333l28.330667 52.224c-1.706667 0-3.072-0.341333-4.778667-0.341333H184.661333zM136.874667 709.632H307.2c9.557333 0 17.066667-7.509333 17.066667-17.066667s-7.509333-17.066667-17.066667-17.066666H136.874667c-9.557333 0-17.066667 7.509333-17.066667 17.066666s7.509333 17.066667 17.066667 17.066667zM136.874667 613.717333H375.466667c9.557333 0 17.066667-7.509333 17.066666-17.066666s-7.509333-17.066667-17.066666-17.066667H136.874667c-9.557333 0-17.066667 7.509333-17.066667 17.066667s7.509333 17.066667 17.066667 17.066666zM136.874667 518.485333h306.176c9.557333 0 17.066667-7.509333 17.066666-17.066666s-7.509333-17.066667-17.066666-17.066667H136.874667c-9.557333 0-17.066667 7.509333-17.066667 17.066667s7.509333 17.066667 17.066667 17.066666z" /></svg>