<?xml version="1.0" standalone="no"?><!DOCTYPE svg PUBLIC "-//W3C//DTD SVG 1.1//EN" "http://www.w3.org/Graphics/SVG/1.1/DTD/svg11.dtd"><svg class="icon" width="128px" height="128.00px" viewBox="0 0 1024 1024" version="1.1" xmlns="http://www.w3.org/2000/svg"><path d="M800.924 962.534H154.771c-44.531 0-80.77-36.227-80.77-80.758V466.392c0-44.531 36.238-80.77 80.77-80.77h138.135c28.373-27.81 58.019-65.94 58.019-103.846v-69.23c0-95.44 77.637-173.077 173.077-173.077s173.077 77.637 173.077 173.077v69.23c0 27.381-2.806 55.721-6.378 80.77h110.224c95.44 0 173.077 77.637 173.077 173.077v4.541l-92.465 346.751c-2.672 42.142-37.806 75.619-80.613 75.619zM154.771 454.853c-6.367 0-11.539 5.172-11.539 11.539v415.385c0 6.354 5.172 11.526 11.539 11.526h646.153c6.366 0 11.538-5.172 11.538-11.526v-4.541l92.219-345.828c-2.209-55.314-47.912-99.631-103.757-99.631h-193.19l8.034-41.23c5.511-28.316 12.079-70.177 12.079-108.77v-69.23c0-57.264-46.582-103.846-103.846-103.846s-103.846 46.582-103.846 103.846v69.23c0 54.132-30.322 109.311-90.122 164.006l-9.916 9.07H154.771zM289.39 939.445c-19.122 0-34.615-15.493-34.615-34.615V443.304c0-19.123 15.493-34.615 34.615-34.615 19.121 0 34.615 15.492 34.615 34.615V904.83c0 19.122-15.494 34.615-34.615 34.615z" /></svg>
