<?xml version="1.0" standalone="no"?><!DOCTYPE svg PUBLIC "-//W3C//DTD SVG 1.1//EN" "http://www.w3.org/Graphics/SVG/1.1/DTD/svg11.dtd"><svg class="icon" width="128px" height="115.99px" viewBox="0 0 1130 1024" version="1.1" xmlns="http://www.w3.org/2000/svg"><path fill="#e6e6e6" d="M1086.445666 1024H44.111328C19.786563 1024 0 1004.213437 0 979.888672s19.786563-44.111328 44.111328-44.111328h91.308633V609.389824c0-24.324765 19.786563-44.111328 44.111328-44.111327s44.111328 19.786563 44.111328 44.111327v326.205992h683.27176V609.389824c0-24.324765 19.786563-44.111328 44.111328-44.111327s44.111328 19.786563 44.111327 44.111327v326.205992h91.308634c24.324765 0 44.111328 19.786563 44.111327 44.111328 0 24.506293-19.786563 44.292856-44.111327 44.292856zM982.067009 505.192696c-11.43627 0-23.054068-1.452225-34.853394-4.175146-5.808899-1.452225-11.254742-3.085978-16.519057-5.082787l-2.722922-1.089168c-16.337529-6.535012-30.133664-14.885304-42.296047-25.232406-0.181528-0.181528-0.363056-0.363056-0.726112-0.544584-2.541393-2.178337-4.901259-4.356674-7.079596-6.71654-26.866158 26.503102-63.716362 42.840631-104.197128 42.840631-40.662294 0-77.512498-16.337529-104.197128-42.840631-26.866158 26.503102-63.716362 42.840631-104.197128 42.840631-40.662294 0-77.33097-16.337529-104.197128-42.840631-26.866158 26.503102-63.716362 42.840631-104.197129 42.840631-40.662294 0-77.512498-16.337529-104.197128-42.840631-7.261124 7.079596-15.24836 13.614607-23.598653 19.060451-0.363056 0.363056-0.90764 0.544584-1.270696 0.90764-4.356674 2.722921-8.894877 5.264315-13.433079 7.442652-0.181528 0.181528-1.815281 0.90764-2.178338 1.089169-4.356674 1.996809-8.894877 3.993618-13.614607 5.627371-0.726112 0.181528-1.270697 0.363056-1.815281 0.726112-15.611416 5.445843-31.948945 8.168764-48.286474 8.168764C66.620812 505.192696 0 438.571884 0 356.702712v-68.980677c0-9.439461 3.085978-18.515866 8.531821-26.140046L187.336997 17.971282c8.350293-11.254742 21.601844-17.971282 35.579507-17.971282H907.640489c13.977664 0 27.229215 6.71654 35.579507 17.971282l178.805177 243.792235c5.627371 7.62418 8.531821 16.700585 8.53182 26.140046v68.980677c0 81.687644-66.620812 148.308456-148.489984 148.308456z m-48.64953-113.455061c0.363056 0.544584 1.089169 1.452225 1.089169 1.452225 0.726112 0.90764 1.815281 2.359865 2.904449 3.630562l1.452225 1.452225c0.90764 0.90764 2.359865 2.359865 3.993618 3.81209l0.363056 0.363056c5.082787 4.356674 11.254742 7.987236 17.971282 10.52863 0.181528 0 0.363056 0.181528 0.363056 0.181528 2.178337 0.726112 4.175146 1.452225 6.535012 1.996809 4.719731 1.089169 9.620989 1.815281 13.977663 1.815281 33.219642 0 60.0858-26.866158 60.085801-60.085801v-54.458429l-157.021805-214.203155H245.24446L88.222656 302.244283v54.458429c0 33.219642 27.047687 60.0858 60.0858 60.085801 6.535012 0 13.070023-1.089169 19.423506-3.449034 0.181528 0 0.544584-0.181528 0.907641-0.363056 1.996809-0.726112 3.81209-1.452225 5.627371-2.359866 2.178337-1.089169 3.993618-1.996809 5.627371-3.085977 0.181528-0.181528 0.544584-0.363056 0.726112-0.544585 7.442652-4.719731 13.796135-11.073214 18.515866-18.515866v-0.181528c1.815281-2.90445 2.722921-4.719731 3.630562-6.716539 3.81209-7.987236 5.627371-16.519057 5.627371-25.232406 0-24.324765 19.786563-44.111328 44.111328-44.111328s44.111328 19.786563 44.111328 44.111328c0 33.219642 26.866158 60.0858 60.0858 60.0858 33.038114 0 60.0858-26.866158 60.085801-60.0858 0-24.324765 19.786563-44.111328 44.111327-44.111328s44.111328 19.786563 44.111328 44.111328c0 33.219642 26.866158 60.0858 60.085801 60.0858s60.0858-26.866158 60.0858-60.0858c0-24.324765 19.786563-44.111328 44.111328-44.111328s44.111328 19.786563 44.111328 44.111328c0 33.219642 27.047687 60.0858 60.0858 60.0858 33.038114 0 60.0858-26.866158 60.0858-60.0858 0-24.324765 19.786563-44.111328 44.111328-44.111328s44.111328 19.786563 44.111328 44.111328c0 9.984045 2.359865 19.605035 7.261124 28.499911l0.90764 1.452225c0.90764 1.452225 1.815281 2.90445 2.90445 4.356675 0.181528 0.726112 0.363056 0.90764 0.544584 1.089168z" /></svg>