<?xml version="1.0" standalone="no"?><!DOCTYPE svg PUBLIC "-//W3C//DTD SVG 1.1//EN" "http://www.w3.org/Graphics/SVG/1.1/DTD/svg11.dtd"><svg class="icon" width="128px" height="128.00px" viewBox="0 0 1024 1024" version="1.1" xmlns="http://www.w3.org/2000/svg"><path fill="#e6e6e6" d="M576.512 331.776c0-6.144-5.12-11.264-11.264-11.264H194.56c-6.144 0-11.264 5.12-11.264 11.264v2.048c0 6.144 5.12 11.264 11.264 11.264h370.688c6.144 0 11.264-5.12 11.264-11.264v-2.048zM194.048 440.32c-6.144 0-10.752 5.12-10.752 11.264v2.048c0 6.144 4.608 11.776 10.752 11.776h317.44l21.504-25.088H194.048z m-11.264 126.976v2.048c0 6.144 5.12 11.776 11.264 11.776h217.6l21.504-25.088H194.048c-6.144 0-11.264 5.12-11.264 11.264z m0 118.784v2.048c0 6.144 4.608 11.776 11.264 11.776h170.496l9.216-25.088H194.048c-6.144 0-11.264 5.12-11.264 11.264z m11.264 109.056c-6.144 0-10.752 5.12-10.752 11.776v2.048c0 6.144 4.608 11.264 10.752 11.264h132.608c1.536 0 2.56 0 3.584-0.512-4.096-4.096-6.656-10.24-4.096-16.896l2.56-7.68c-1.024 0-1.536-0.512-2.56-0.512l-132.096 0.512z m788.48-601.6l-112.64-97.28c-12.8-11.264-32.256-9.728-43.52 3.072l-112.64 131.072v-33.792L569.344 43.52H96.768c-36.352 0-67.072 29.696-67.072 66.56v805.376c0 36.352 30.208 66.56 67.072 66.56h549.376c36.352 0 66.048-29.696 66.048-66.048l1.024-361.472 272.896-316.928c10.752-13.312 9.216-32.768-3.584-44.032z m-320.512 721.408c0 8.704-7.68 15.872-15.872 15.872H96.768c-8.704 0-16.896-7.168-16.896-15.872V110.08c0-8.704 7.68-15.872 16.896-15.872h431.616v139.776h135.68v54.784L532.992 440.32l-21.504 25.088-77.824 90.112-21.504 25.088-0.512 0.512c-0.512 0.512-1.024 1.536-1.536 2.048-2.048 2.048-3.584 4.608-5.12 7.168L373.76 674.816l-9.216 25.088-35.328 95.744-2.56 7.68c-2.56 6.656 0 12.8 4.096 16.896 4.096 4.096 10.752 5.632 16.896 2.56l213.504-95.232c3.072-1.536 6.144-3.584 8.192-6.656l2.048-2.048 92.16-107.008-1.536 303.104z m-267.264-185.344l34.304-92.16 80.896 69.632-94.72 41.984c-36.864 15.872-36.864 15.872-20.48-19.456z m151.552-42.496l-100.352-86.528 404.48-469.504 100.352 86.528-404.48 469.504z m293.888-462.336l-316.928 370.176c-5.12 5.632-4.096 14.336 1.536 19.456s14.336 4.096 19.456-1.536l316.928-370.176c5.12-5.632 4.096-14.336-1.536-19.456-5.632-4.608-14.336-4.096-19.456 1.536z" /></svg>