<?xml version="1.0" standalone="no"?><!DOCTYPE svg PUBLIC "-//W3C//DTD SVG 1.1//EN" "http://www.w3.org/Graphics/SVG/1.1/DTD/svg11.dtd"><svg class="icon" width="128px" height="128.00px" viewBox="0 0 1024 1024" version="1.1" xmlns="http://www.w3.org/2000/svg"><path fill="#e6e6e6" d="M512 960c247.424 0 448-200.576 448-448S759.424 64 512 64 64 264.576 64 512s200.576 448 448 448z m0 64C229.216 1024 0 794.784 0 512S229.216 0 512 0s512 229.216 512 512-229.216 512-512 512z m0-800c17.664 0 32 23.68 32 52.928v317.504c0 29.216-14.336 52.896-32 52.896s-32-23.68-32-52.896V276.928C480 247.68 494.336 224 512 224z m0 493.888a32 32 0 1 1 0 64 32 32 0 0 1 0-64z" /></svg>