<?xml version="1.0" standalone="no"?><!DOCTYPE svg PUBLIC "-//W3C//DTD SVG 1.1//EN" "http://www.w3.org/Graphics/SVG/1.1/DTD/svg11.dtd"><svg class="icon" width="128px" height="112.90px" viewBox="0 0 1161 1024" version="1.1" xmlns="http://www.w3.org/2000/svg"><path fill="#e6e6e6" d="M951.886644 860.129871a22.955181 22.955181 0 0 1-11.5969-42.753768 356.272313 356.272313 0 0 0 127.245469-127.081844 353.811125 353.811125 0 0 0 48.405638-178.83497c0-62.443273-16.457917-123.822985-47.621603-177.50552A356.367761 356.367761 0 0 0 942.928192 207.110544a22.934728 22.934728 0 0 1 23.493779-39.399462 402.537195 402.537195 0 0 1 141.569447 143.212511 399.94647 399.94647 0 0 1 53.832523 200.535696c0 71.142652-18.912287 141.010396-54.691553 202.049223a402.332664 402.332664 0 0 1-143.676115 143.478402 22.880186 22.880186 0 0 1-11.569629 3.142957m-121.068636-148.612126a22.934728 22.934728 0 0 1-11.5969-42.740133 182.748328 182.748328 0 0 0 65.286252-65.197622 181.412059 181.412059 0 0 0 24.823229-91.725275c0-32.029533-8.440307-63.506833-24.427803-91.036688a182.816505 182.816505 0 0 0-64.324957-65.081721 22.934728 22.934728 0 0 1 23.486961-39.392645 228.910944 228.910944 0 0 1 80.510166 81.437373 227.513316 227.513316 0 0 1 30.625088 114.066863 227.254244 227.254244 0 0 1-31.12278 114.912258 228.924579 228.924579 0 0 1-81.696445 81.614632 22.887004 22.887004 0 0 1-11.562811 3.142958m-542.831733 74.176527c-2.161209-1.397628-60.002538-38.376808-124.859275-37.633679l-0.272708 0.006817c-81.662357 0-150.84833-61.400166-160.93852-142.817085l-0.068177-0.53178-1.847595-18.332783V438.223604l1.908955-18.871381c10.090189-81.423737 79.276163-142.823903 160.938519-142.823903l1.274909 0.040906c0.688587 0.027271 74.435599 3.306582 124.320678-37.538231l0.784035-0.613593L562.841669 33.572923a194.113426 194.113426 0 0 1 35.363386-21.496194c29.718335-13.819469 57.132288-15.817054 79.269346-5.788223 11.235562 5.086001 22.887004 11.801431 32.049986 26.343575 9.012993 14.323978 13.955823 33.863493 15.537528 61.522884l0.040906 1.308998v833.906424l-0.013635 0.238619c-0.7704 36.140604-5.154178 75.887768-47.737504 90.375371-8.188052 2.78162-16.641995 3.954263-25.109572 3.954264-41.512948 0-82.787276-28.204806-88.616406-32.329512l-44.165032-30.815984m18.271424-55.516494l42.481061 29.629704c11.133297 7.867621 47.832952 28.729769 69.301874 21.434835 7.710814-2.638448 15.019383-5.120089 15.912502-45.596747V114.273985c-2.263475-38.035923-10.390168-41.724296-19.778135-45.978539-20.044025-9.08117-54.098414 12.401388-64.427222 20.643982l-0.559051 0.436333-261.560888 195.804214c-58.829894 47.887493-138.999176 45.883091-148.039439 45.487665-55.693754 0.252255-102.831301 42.228806-109.84671 97.888471l-1.520346 15.080743v137.287934l1.520346 15.094378c7.035862 55.782384 54.364304 97.83393 110.221683 97.888472 0.7704-0.027271 1.540799-0.027271 2.304381-0.027271 75.744597 0 139.128712 41.560672 141.814884 43.34009" /></svg>