<?xml version="1.0" standalone="no"?><!DOCTYPE svg PUBLIC "-//W3C//DTD SVG 1.1//EN" "http://www.w3.org/Graphics/SVG/1.1/DTD/svg11.dtd"><svg class="icon" width="128px" height="128.00px" viewBox="0 0 1024 1024" version="1.1" xmlns="http://www.w3.org/2000/svg"><path fill="#ffffff" d="M510.813091 1021.626182C228.654545 1021.626182 0 792.971636 0 510.813091 0 228.654545 228.654545 0 510.813091 0c282.158545 0 510.813091 228.654545 510.813091 510.813091 0 282.158545-228.654545 510.813091-510.813091 510.813091z m0-972.986182C256.209455 48.64 48.64 256.232727 48.64 510.836364c0 254.603636 207.592727 462.173091 462.173091 462.173091 254.603636 0 462.173091-207.592727 462.173091-462.173091 0-254.603636-207.592727-462.173091-462.173091-462.173091zM548.119273 510.813091l197.818182-197.818182c9.751273-9.751273 9.751273-25.972364 0-37.329454l-1.629091-1.629091a25.460364 25.460364 0 0 0-35.653819 0l-197.841454 199.470545-197.818182-197.818182a25.460364 25.460364 0 0 0-35.700364 0l-1.62909 1.629091c-9.728 9.704727-9.728 25.925818 0 37.282909l197.841454 196.212364-197.818182 197.818182c-9.751273 9.751273-9.751273 25.972364 0 37.306182l1.629091 1.62909a25.460364 25.460364 0 0 0 35.653818 0l197.841455-199.447272 197.818182 197.818182a25.460364 25.460364 0 0 0 35.700363 0l1.629091-1.629091c9.728-9.704727 9.728-25.925818 0-37.282909l-197.841454-196.212364z" /></svg>
