<?xml version="1.0" standalone="no"?><!DOCTYPE svg PUBLIC "-//W3C//DTD SVG 1.1//EN" "http://www.w3.org/Graphics/SVG/1.1/DTD/svg11.dtd"><svg class="icon" width="128px" height="128.00px" viewBox="0 0 1024 1024" version="1.1" xmlns="http://www.w3.org/2000/svg"><path fill="#e6e6e6" d="M777.216 556.032c-127.488 0-230.4 102.912-230.4 230.4s102.912 230.4 230.4 230.4 230.4-102.912 230.4-230.4-102.912-230.4-230.4-230.4z m-171.52 230.4c0-94.72 76.8-172.032 171.52-172.032 37.888 0 74.752 12.8 104.448 36.352L632.32 878.08c-17.408-27.648-26.624-59.392-26.624-91.648z m171.52 171.52c-37.888 0-74.752-12.8-104.448-36.352l249.344-227.328c16.896 26.624 26.624 57.856 26.624 91.648 0.512 95.232-76.288 172.032-171.52 172.032zM587.264 594.944c2.56 0.512 5.632 1.536 8.704 1.536 14.848 8.192 33.28 2.56 41.472-12.288s2.56-33.28-12.288-41.472c-4.096-2.048-9.216-3.584-13.824-3.584l0.512-1.024c-1.024-0.512-2.048-0.512-3.072-1.024h-0.512c-7.68-2.56-14.848-5.12-22.528-7.68 86.016-48.64 144.384-139.776 144.384-245.76C727.552 126.976 598.528 1.536 441.856 4.096c-153.6 2.048-277.504 125.952-279.552 279.552 0 109.056 61.952 202.752 152.576 250.368-167.424 58.88-281.6 214.528-287.744 391.68h0.512c0 1.024-0.512 1.536-0.512 2.56 0 16.896 13.824 30.72 30.72 30.72 21.504 0 37.376-13.824 37.376-30.72 0-1.024-0.512-1.536-0.512-2.56h0.512c7.68-197.12 163.328-347.648 361.984-347.648 45.056 0 89.088 2.048 130.048 16.896zM445.44 504.32c-121.856 0-220.672-98.816-220.672-220.672S323.584 62.976 445.44 62.976s220.672 98.816 220.672 220.672S567.296 504.32 445.44 504.32z" /></svg>