<?xml version="1.0" standalone="no"?><!DOCTYPE svg PUBLIC "-//W3C//DTD SVG 1.1//EN" "http://www.w3.org/Graphics/SVG/1.1/DTD/svg11.dtd"><svg class="icon" width="128px" height="128.00px" viewBox="0 0 1024 1024" version="1.1" xmlns="http://www.w3.org/2000/svg"><path fill="#e6e6e6" d="M689.834667 741.278476h-165.059048a24.966095 24.966095 0 0 1-25.502476-24.819809c0-13.897143 11.215238-24.81981 25.502476-24.81981h139.50781v-421.790476a24.966095 24.966095 0 0 0-25.551239-24.868571H229.961143a24.966095 24.966095 0 0 0-25.551238 24.868571c0 13.848381-11.215238 24.771048-25.551238 24.771048H118.491429a24.966095 24.966095 0 0 1-25.551239-24.81981c0-13.897143 11.215238-24.771048 25.551239-24.771048h38.863238c10.727619-28.769524 38.814476-49.639619 72.021333-49.639619h408.81981c42.422857 0 76.653714 33.255619 76.653714 74.410667v446.659048a24.478476 24.478476 0 0 1-25.063619 24.819809zM345.965714 741.278476h-116.053333c-42.374095 0-76.604952-33.255619-76.604952-74.459428 0-13.897143 11.215238-24.81981 25.551238-24.81981 14.287238 0 25.551238 10.922667 25.551238 24.868572 0 13.848381 11.215238 24.771048 25.551238 24.771047h116.004571c14.287238 0 25.551238 10.922667 25.551238 24.868572a25.258667 25.258667 0 0 1-25.551238 24.771047zM972.458667 741.278476h-35.791238a24.966095 24.966095 0 0 1-25.551239-24.819809c0-13.897143 11.215238-24.81981 25.551239-24.81981h35.791238V536.380952L874.300952 393.898667h-157.354666v297.74019h40.862476c14.336 0 25.551238 10.922667 25.551238 24.868572 0 13.848381-11.215238 24.771048-25.551238 24.771047H691.44381a24.966095 24.966095 0 0 1-25.551239-24.819809V369.127619c0-13.897143 11.215238-24.81981 25.551239-24.819809h182.905904c16.871619 0 33.255619 8.43581 42.422857 21.845333l98.108953 142.384762c5.656381 8.484571 8.728381 17.895619 8.728381 27.794285v155.355429c0 27.306667-23.015619 49.639619-51.102476 49.639619zM436.906667 828.611048c-63.390476 0-114.980571-50.127238-114.980572-111.664762s51.638857-111.664762 114.980572-111.664762c63.390476 0 114.980571 50.127238 114.980571 111.664762s-51.638857 111.664762-114.980571 111.664762z m0-173.689905c-35.254857 0-63.878095 27.794286-63.878096 62.025143 0 34.230857 28.623238 62.025143 63.878096 62.025143 35.254857 0 63.878095-27.794286 63.878095-62.025143 0-34.230857-28.623238-62.025143-63.878095-62.025143zM849.286095 828.611048c-63.390476 0-114.980571-50.127238-114.980571-111.664762s51.638857-111.664762 114.980571-111.664762c63.390476 0 114.980571 50.127238 114.980572 111.664762s-51.638857 111.664762-114.980572 111.664762z m0-173.689905c-35.254857 0-63.878095 27.794286-63.878095 62.025143 0 34.230857 28.623238 62.025143 63.878095 62.025143 35.254857 0 63.878095-27.794286 63.878095-62.025143 0-34.230857-28.623238-62.025143-63.878095-62.025143zM260.632381 382.976h-117.516191a24.966095 24.966095 0 0 1-25.6-24.81981c0-13.897143 11.215238-24.81981 25.551239-24.819809h117.51619c14.336 0 25.6 10.922667 25.6 24.819809 0 13.897143-11.264 24.81981-25.551238 24.81981zM204.409905 581.485714h-117.516191a24.966095 24.966095 0 0 1-25.551238-24.819809c0-13.897143 11.215238-24.81981 25.551238-24.81981h117.516191c14.287238 0 25.551238 10.922667 25.551238 24.81981 0 13.897143-11.215238 24.81981-25.551238 24.819809zM373.028571 472.30781H25.551238A24.966095 24.966095 0 0 1 0 447.439238c0-13.848381 11.215238-24.771048 25.551238-24.771048H373.028571c14.287238 0 25.551238 10.922667 25.551239 24.81981 0 13.897143-11.215238 24.81981-25.551239 24.81981zM945.347048 482.255238h-153.307429a24.966095 24.966095 0 0 1-25.551238-24.868571c0-13.848381 11.215238-24.771048 25.551238-24.771048h153.307429c14.336 0 25.551238 10.922667 25.551238 24.771048 0 13.897143-11.215238 24.868571-25.551238 24.868571z" /></svg>