<?xml version="1.0" standalone="no"?><!DOCTYPE svg PUBLIC "-//W3C//DTD SVG 1.1//EN" "http://www.w3.org/Graphics/SVG/1.1/DTD/svg11.dtd"><svg class="icon" width="128px" height="128.00px" viewBox="0 0 1024 1024" version="1.1" xmlns="http://www.w3.org/2000/svg"><path fill="#e6e6e6" d="M853.333333 85.333333h-128c0-46.933333-38.4-85.333333-85.333333-85.333333h-256c-46.933333 0-85.333333 38.4-85.333333 85.333333H170.666667C123.733333 85.333333 85.333333 123.733333 85.333333 170.666667v768c0 46.933333 38.4 85.333333 85.333334 85.333333h682.666666c46.933333 0 85.333333-38.4 85.333334-85.333333V170.666667c0-46.933333-38.4-85.333333-85.333334-85.333334zM384 85.333333h256v85.333334h-256V85.333333z m469.333333 853.333334H170.666667V170.666667h128c0 46.933333 38.4 85.333333 85.333333 85.333333h256c46.933333 0 85.333333-38.4 85.333333-85.333333h128v768zM469.333333 627.2l-123.733333-123.733333-59.733333 59.733333 123.733333 123.733333 59.733333 59.733334 311.466667-311.466667-59.733333-59.733333z" /></svg>