<?xml version="1.0" standalone="no"?><!DOCTYPE svg PUBLIC "-//W3C//DTD SVG 1.1//EN" "http://www.w3.org/Graphics/SVG/1.1/DTD/svg11.dtd"><svg class="icon" width="128px" height="128.00px" viewBox="0 0 1024 1024" version="1.1" xmlns="http://www.w3.org/2000/svg"><path fill="#e6e6e6" d="M511.49468769 864.80923405L144.94418729 864.80923405C134.81435961 864.80923405 126.80979651 856.7719533 126.80979651 846.41060938L126.80979651 145.41331232C126.80979651 135.11824974 134.82068783 127.01473463 145.10618731 127.01473463L842.20906233 127.01473463C852.30415616 127.01473463 860.50545312 135.30424963 860.50545312 145.62598428L860.50545312 517.99798474C860.50545312 528.1848125 868.7176249 536.44282777 878.84782829 536.44282777 888.97803088 536.44282777 897.19020349 528.1848125 897.19020349 517.99798474L897.19020349 145.62598428C897.19020349 114.97287473 872.60684356 90.12500001 842.20906233 90.12500001L145.10618731 90.12500001C114.51143742 90.12500001 90.12500001 114.79334385 90.12500001 145.41331232L90.12500001 846.41060938C90.12500001 877.15789098 114.56618724 901.69896867 144.94418729 901.69896867L511.49468769 901.69896867C521.62493724 901.69896867 529.837109 893.44090643 529.837109 883.2540778 529.837109 873.06729706 521.62493724 864.80923405 511.49468769 864.80923405ZM255.20651591 274.57362463C255.20651591 264.38679687 263.48403134 256.1287816 273.31929715 256.1287816L713.99590633 256.1287816C723.99931244 256.1287816 732.10868761 264.68473456 732.10868761 274.57362463 732.10868761 284.76045322 723.83117215 293.01846848 713.99590633 293.01846848L273.31929715 293.01846848C263.31589028 293.01846848 255.20651591 284.46251553 255.20651591 274.57362463ZM255.20651591 422.13251545C255.20651591 411.94573463 263.48403134 403.68767161 273.31929715 403.68767161L713.99590633 403.68767161C723.99931244 403.68767161 732.10868761 412.24362537 732.10868761 422.13251545 732.10868761 432.31934402 723.83117215 440.57740625 713.99590633 440.57740625L273.31929715 440.57740625C263.31589028 440.57740625 255.20651591 432.02140635 255.20651591 422.13251545ZM255.20651591 569.69145325C255.20651591 559.50462464 263.56625001 551.24656238 273.97287463 551.24656238L456.54889087 551.24656238C466.91323411 551.24656238 475.31520349 559.80251535 475.31520349 569.69145325 475.31520349 579.87823401 466.95546855 588.13629706 456.54889087 588.13629706L273.97287463 588.13629706C263.60848446 588.13629706 255.20651591 579.58034413 255.20651591 569.69145325ZM722.9375 509.64317223C605.75000019 509.64317223 512 603.91690635 512 721.75906228 512 839.6012659 605.75000019 933.87499999 722.9375 933.87499999 840.12499982 933.87499999 933.87499999 839.6012659 933.87499999 721.75906228 933.87499999 603.91690635 840.12499982 509.64317223 722.9375 509.64317223ZM722.9375 542.63895286C755.74999982 542.63895286 788.56249963 552.06635947 816.68750019 570.92107795L802.62499988 570.92107795 722.9375 702.90434378 643.25000009 570.92107795 629.18749982 570.92107795C657.31250038 556.78001579 690.12500018 542.63895286 722.9375 542.63895286ZM722.9375 896.16551527C624.49999973 896.16551527 544.81249981 816.03284412 544.81249981 717.04540587 544.81249981 665.19481287 568.25000027 613.34426599 605.75000019 585.0621409L690.12500018 717.04540587 624.49999973 717.04540587 624.49999973 750.04118732 704.18749963 750.04118732 704.18749963 773.60965604 624.49999973 773.60965604 624.49999973 806.60543751 704.18749963 806.60543751 704.18749963 858.45598437 741.68750036 858.45598437 741.68750036 806.60543751 821.37500028 806.60543751 821.37500028 773.60965604 741.68750036 773.60965604 741.68750036 750.04118732 821.37500028 750.04118732 821.37500028 717.04540587 755.74999982 717.04540587 840.12499982 585.0621409C877.62499973 618.05796849 901.06250018 665.19481287 901.06250018 717.04540587 896.37500009 820.74649963 821.37500028 896.16551527 722.9375 896.16551527Z" /></svg>